PathFileType	4	(X/Y/Z)	/Users/mathieubourgeois/Desktop/Analyse/Traitement/Sujet_07/Data/Transformed_Sujet_07_velo_80.trc
DataRate	CameraRate	NumFrames	NumMarkers	Units	OrigDataRate	OrigDataStartFrame	OrigNumFrames
120.000000	120.000000	6	36	mm	120.000000	1634	1868
Frame#	Time	RFHD			LFHD			RBHD			LBHD			C7			CLAV			RSHO			LSHO			STRN			T10			RBWT			LBWT			RFWT			LFWT			RKNI			LKNI			RKNE			LKNE			LANI			RANI			LANE			RANE			LTOE			RTOE			LHEE			RHEE			RHUM			LHUM			RRAD			LRAD			RWRA			RWRB			LWRA			LWRB			LCAR			RCAR			
		X1	Y1	Z1	X2	Y2	Z2	X3	Y3	Z3	X4	Y4	Z4	X5	Y5	Z5	X6	Y6	Z6	X7	Y7	Z7	X8	Y8	Z8	X9	Y9	Z9	X10	Y10	Z10	X11	Y11	Z11	X12	Y12	Z12	X13	Y13	Z13	X14	Y14	Z14	X15	Y15	Z15	X16	Y16	Z16	X17	Y17	Z17	X18	Y18	Z18	X19	Y19	Z19	X20	Y20	Z20	X21	Y21	Z21	X22	Y22	Z22	X23	Y23	Z23	X24	Y24	Z24	X25	Y25	Z25	X26	Y26	Z26	X27	Y27	Z27	X28	Y28	Z28	X29	Y29	Z29	X30	Y30	Z30	X31	Y31	Z31	X32	Y32	Z32	X33	Y33	Z33	X34	Y34	Z34	X35	Y35	Z35	X36	Y36	Z36	

1635	13.61666666666667	278.4516906738281	1346.087036132812	104.4691696166992	270.4104614257812	1330.102905273438	-28.77378463745122	226.5200042724609	1488.7919921875	107.7034378051757	212.9871063232422	1487.925659179688	-37.3153038024903	66.41048431396484	1485.169677734375	33.75904464721671	38.88314819335937	1349.929565429688	42.96361923217766	77.75113677978513	1435.40576171875	183.5870208740234	95.39524078369142	1453.84814453125	-89.45207977294929	-116.81201171875	1284.086791992188	28.79698753356924	-185.1181640625	1513.410888671875	26.35115814208973	-426.0618896484375	1299.290405273438	116.0105972290038	-438.3622436523438	1298.893920898438	0.6132690310476878	-265.3529052734375	1204.118041992188	148.5842132568358	-284.5000610351562	1205.40283203125	-63.64914703369151	-97.55844879150392	721.3675537109375	109.2032394409179	-62.29430770874023	836.0230102539062	-41.35853576660162	-115.4596710205078	784.263916015625	210.0486145019531	-44.03742599487303	878.8638916015625	-148.9087219238282	-328.2377014160156	567.6110229492188	-48.33175659179695	-111.5556106567383	337.2303161621094	129.9632110595703	-351.3321228027344	569.289794921875	-135.5621795654298	-139.3243865966797	327.0701599121094	215.6177978515624	-234.0151214599609	394.7822570800781	-104.5056076049805	63.09280014038084	241.4906921386719	197.7281799316406	-404.7174072265625	596.3001708984375	-96.17770385742196	-193.2439727783203	307.8689575195312	172.6385345458984	88.73921203613278	1106.913940429688	220.5621185302734	97.25820922851564	1122.017944335938	-139.1832427978516	134.7669830322265	1133.327270507812	263.8414611816406	159.4728393554688	1138.064575195312	-158.7029876708985	324.3892822265624	936.5848388671875	248.3475036621093	280.2706909179687	903.4160766601562	301.7277221679688	317.1294250488281	929.8307495117188	-104.0216522216797	276.6990356445312	886.796630859375	-154.0177764892578	371.3958435058594	914.273193359375	-193.6075134277344	369.7845153808593	926.7423706054688	341.3272705078125	
1636	13.625	278.7157287597656	1345.828491210938	102.7793045043945	270.6770629882812	1329.932861328125	-30.46824836730962	226.9157562255859	1488.597045898438	106.0849838256835	213.3156585693359	1487.779541015625	-38.95942687988288	66.85332489013672	1485.141723632812	32.33330154418937	39.16365432739257	1349.8984375	41.78684234619133	78.29125213623044	1435.456298828125	182.226333618164	95.38038635253908	1453.784790039062	-90.96306610107429	-116.5421829223633	1284.100341796875	28.27671241760245	-184.7613067626953	1513.412475585938	25.84117126464832	-425.3505859375	1299.232788085938	116.4252700805663	-437.9306945800781	1299.290649414062	1.09461700916277	-264.9249267578125	1203.545043945312	148.4574737548827	-284.1278686523438	1205.745727539062	-63.43051528930675	-106.7947082519531	713.7719116210938	109.5037460327148	-55.83960342407226	843.4961547851562	-40.31494522094732	-124.2132263183594	776.7001953125	210.6065673828124	-38.5161437988281	887.9904174804688	-148.1028747558594	-322.9404602050781	577.76806640625	-47.55485534667977	-116.131706237793	329.5000915527344	130.0873413085937	-345.9757995605469	579.4710693359375	-134.8274078369141	-144.3805389404297	319.0087585449219	215.5405120849609	-226.3869171142578	406.4461364746094	-104.4546661376954	56.90268707275388	229.8902893066406	197.3520812988281	-399.5559387207031	606.218017578125	-95.45163726806649	-198.0574798583985	300.7278137207031	172.1807708740234	89.00807952880857	1107.001220703125	219.8245239257812	97.27809906005861	1121.995849609375	-139.7930450439454	135.0825500488281	1133.386108398438	263.0681457519531	159.512191772461	1138.04931640625	-159.3641204833985	324.4503173828124	936.043212890625	247.7409057617187	280.2245483398437	903.4153442382812	301.5189208984375	317.1239929199219	929.8394165039062	-104.1271438598633	276.7356567382812	886.7528686523438	-154.1005401611328	371.4377136230469	914.2113037109375	-193.6441802978516	369.7117919921874	926.7686157226562	341.2811584472656	
1637	13.63333333333333	279.0792541503906	1345.638793945312	101.1120071411132	270.9346923828125	1329.749145507812	-32.06716156005864	227.382080078125	1488.397216796875	104.536262512207	213.7042236328125	1487.61767578125	-40.49259185791022	67.27066040039062	1485.05615234375	30.88803291320792	39.4244041442871	1349.828247070312	40.48839950561516	78.88121795654294	1435.434814453125	180.7040710449218	95.37477874755861	1453.754272460938	-92.52291107177741	-116.3008499145508	1284.078125	27.5890178680419	-184.4419860839844	1513.387329101562	25.33773803710926	-424.661865234375	1299.179077148438	116.8179931640624	-437.4953918457031	1299.667846679688	1.46851038932787	-264.4378051757812	1203.008544921875	148.3446807861327	-283.7141723632812	1206.131103515625	-63.22315979003917	-115.8493728637695	706.6170043945312	109.8902740478515	-50.25937271118163	852.9774169921875	-39.38118362426763	-132.8957977294922	769.5437622070312	211.2176208496093	-32.72411346435545	896.6461181640625	-147.5971374511719	-317.4122009277344	587.321533203125	-46.6496658325196	-121.3687973022461	322.2443542480469	130.1836853027343	-340.307861328125	589.0014038085938	-133.9770050048829	-150.0530548095703	311.4430541992188	215.4429931640624	-218.9944610595703	417.0068664550781	-103.7071380615235	49.97697830200193	218.6968536376953	196.84619140625	-394.2585144042969	615.2139282226562	-94.50424194335946	-203.4909820556641	294.1919860839844	171.6051330566406	89.26999664306638	1107.102172851562	219.1192779541015	97.25074005126955	1121.934204101562	-140.5441894531251	135.3608703613281	1133.504516601562	262.3371887207031	159.5120849609375	1138.024047851562	-160.0177764892578	324.5066528320312	936.0043334960938	247.6347503662109	280.1826171874999	903.42724609375	301.3148498535156	317.1110534667969	929.87548828125	-104.2510757446289	276.772216796875	886.7031860351562	-154.2111968994141	371.4833068847656	914.1421508789062	-193.7033081054688	369.6272583007812	926.7960205078125	341.23193359375	
1638	13.64166666666667	279.3827819824219	1345.447387695312	99.55535125732416	271.1988830566406	1329.567626953125	-33.69013595581059	227.8109436035156	1488.239135742188	102.9881057739257	214.0504760742188	1487.502319335938	-42.0088958740235	67.69090270996094	1484.954711914062	29.38261795043937	39.66364288330077	1349.738891601562	39.32222747802727	79.43595123291013	1435.522216796875	179.2461395263671	95.32672119140626	1453.669921875	-94.10418701171882	-116.0743865966797	1284.044921875	27.20574188232413	-184.081298828125	1513.343505859375	24.88272094726551	-423.921875	1299.026733398438	117.1447448730467	-437.0856628417969	1299.965454101562	1.867769837379323	-264.0234375	1202.354614257812	147.8687744140624	-283.3428955078125	1206.588623046875	-63.01840972900401	-124.8362503051758	699.9349365234375	110.2737808227538	-44.63854598999023	861.7976684570312	-38.60010910034185	-141.4483032226563	762.8077392578125	211.8720550537109	-27.73807144165037	905.680908203125	-147.7220001220704	-311.6555480957031	596.1473388671875	-45.68669128417976	-127.2633514404297	315.512451171875	130.2873840332031	-334.4608459472656	597.7715454101562	-133.0298309326172	-156.4035034179688	304.3407287597656	215.2884521484374	-210.9360656738281	427.1643981933594	-102.9981842041016	42.3561096191406	208.1192779541016	196.2836456298828	-389.1253967285156	623.024169921875	-93.01170349121102	-209.5600128173828	288.123046875	171.0384826660156	89.53676605224607	1107.225219726562	218.4522094726562	97.18214416503908	1121.851684570312	-141.1870880126954	135.6287994384765	1133.651489257812	261.6605834960937	159.4288482666016	1137.887573242188	-160.6892395019532	324.5738220214843	935.9671630859375	247.5745544433593	280.1388244628906	903.446533203125	301.1308898925781	317.0592346191406	929.9014282226562	-104.4132690429688	276.7892761230469	886.6459350585938	-154.3414916992188	371.5354309082031	914.0431518554688	-193.7726593017578	369.5644836425781	926.8104248046875	341.175048828125	
1639	13.65	279.7649230957031	1345.275024414062	98.01018524169916	271.4724426269531	1329.4873046875	-35.24561691284184	228.2509460449219	1488.09814453125	101.5222244262695	214.3703155517578	1487.380493164062	-43.47119522094733	68.06867218017578	1484.859741210938	27.96777153015128	39.90586471557616	1349.659301757812	38.17422485351555	79.9625549316406	1435.604125976562	177.7904510498046	95.2512893676758	1453.598754882812	-95.60361480712898	-115.8310775756836	1284.00048828125	26.7682170867919	-183.7069549560547	1513.277221679688	24.46702194213856	-423.21435546875	1298.989501953125	117.6229934692381	-436.6220092773438	1300.25048828125	2.227025032043324	-263.4006652832031	1201.7216796875	147.9204101562499	-283.2433471679688	1206.433227539062	-62.59448623657237	-134.0236968994141	693.5565795898438	110.8769378662109	-39.36154556274413	870.4777221679688	-37.74687194824225	-149.8748626708985	756.472412109375	212.5934295654296	-22.93965148925779	914.3362426757812	-147.2709960937501	-305.6875305175781	604.2207641601562	-44.61590957641609	-133.6754302978516	309.1980590820312	130.3957366943359	-328.4679870605469	605.7556762695312	-132.0349731445313	-163.4090118408203	297.8007507324219	215.1593322753906	-202.1719818115234	437.0584411621094	-102.3522109985352	34.03910064697263	198.1478424072266	195.7491912841797	-383.1935119628906	630.7938842773438	-92.71373748779305	-216.2813720703125	282.5884399414062	170.4456481933593	89.79497528076169	1107.389038085938	217.9021301269531	97.11094665527345	1121.746826171875	-141.9678497314454	135.9796295166015	1133.841796875	260.9822082519531	159.3556365966797	1137.799438476562	-161.5267944335938	324.6494445800781	935.960693359375	247.4355010986328	280.1110229492187	903.4815673828125	300.9611511230469	317.0011901855469	929.8870239257812	-104.6025543212891	276.8216247558594	886.531494140625	-154.4610900878907	371.5624084472656	913.9297485351562	-193.8487701416016	369.5432128906249	926.8299560546875	341.1130676269531	
1640	13.65833333333333	280.0992431640625	1345.123901367188	96.4729385375976	271.7467346191406	1329.36962890625	-36.77409362792973	228.6379089355469	1487.956176757812	100.1265792846679	214.6777648925781	1487.322509765625	-44.84769058227545	68.39981842041016	1484.766479492188	26.56849861145011	40.10724258422851	1349.584838867188	37.04197692871086	80.49324798583982	1435.693725585938	176.3328704833984	95.17422485351564	1453.484252929688	-97.09982299804695	-115.629997253418	1283.958374023438	26.37668037414542	-183.3873443603516	1513.214599609375	24.12247276306141	-422.4747009277344	1298.871337890625	118.0314865112303	-436.2134399414062	1300.5595703125	2.620827913284169	-262.7662353515625	1201.091918945312	148.1986236572264	-282.9166259765625	1206.85791015625	-62.42058181762706	-142.4813995361328	687.7587890625	111.4243850708007	-33.70650482177734	878.679443359375	-36.63291168212897	-157.9648742675782	750.6447143554688	213.4373626708984	-18.47814178466795	922.6722412109375	-146.6983642578126	-299.4747314453125	611.5217895507812	-43.61744689941413	-140.8266754150391	303.42138671875	130.5254974365234	-322.2941589355469	612.9323120117188	-131.0253448486329	-171.0477294921875	291.7329406738281	214.9943237304687	-192.7784729003906	446.6598815917969	-101.7204818725587	24.84210777282712	188.8453063964844	195.4840393066406	-377.4385375976562	637.0463256835938	-91.67045593261727	-223.7192687988282	277.5888366699219	169.8910064697265	90.07508850097653	1107.61962890625	217.3535003662109	96.9690399169922	1121.585571289062	-142.7761535644532	136.3395690917968	1134.083862304688	260.3971252441406	159.2037048339844	1137.580688476562	-162.1802825927735	324.7155151367187	935.9651489257812	247.3170166015625	280.1005859374999	903.55126953125	300.7883911132812	316.9317932128906	929.8772583007812	-104.8234939575195	276.8377990722656	886.4428100585938	-154.618881225586	371.61181640625	913.80810546875	-193.9628448486328	369.5266418457031	926.866455078125	341.0156555175781	
